<svg width="97.32875366210938px" height="98.75234375px" xmlns="http://www.w3.org/2000/svg" viewBox="201.33562316894532 25.623828125000003 97.32875366210938 98.75234375" style="background: rgba(0, 0, 0, 0);" preserveAspectRatio="xMidYMid"><defs><filter id="editing-neon" x="-100%" y="-100%" width="300%" height="300%"><feFlood flood-color="#67b4d3" result="flood"></feFlood><feComposite operator="in" in="flood" in2="SourceAlpha" result="color"></feComposite><feFlood flood-color="#67b4d3" result="flood2"></feFlood><feComposite operator="in" in="flood2" in2="SourceAlpha" result="color2"></feComposite><feMorphology operator="dilate" radius="2" in="color" result="dilate"></feMorphology><feGaussianBlur stdDeviation="6" in="color" result="blur1"></feGaussianBlur><feGaussianBlur stdDeviation="2.5" in="color" result="blur2"></feGaussianBlur><feGaussianBlur stdDeviation="1" in="SourceAlpha" result="blur3"></feGaussianBlur><feGaussianBlur stdDeviation="6" in="dilate" result="blur4"></feGaussianBlur><feConvolveMatrix in="color2" result="conv" order="3,3" divisor="1" kernelMatrix="1 1 1  1 1 1  1 1 1"></feConvolveMatrix><feMerge><feMergeNode in="blur1"></feMergeNode><feMergeNode in="blur2"></feMergeNode><feMergeNode in="blur4"></feMergeNode><feMergeNode in="blur3"></feMergeNode><feMergeNode in="blur3"></feMergeNode><feMergeNode in="blur3"></feMergeNode><feMergeNode in="blur3"></feMergeNode><feMergeNode in="conv"></feMergeNode><feMergeNode in="SourceGraphic"></feMergeNode></feMerge></filter></defs><g filter="url(#editing-neon)"><g transform="translate(222.4984386563301, 92.89999961853027)"><path d="M10.30-25.25L8.90-20.55L8.90-20.55Q11.80-20.80 13.60-20.80L13.60-20.80L13.60-20.80Q15.40-20.80 17.30-20.15L17.30-20.15L17.30-20.15Q19.20-19.50 20.60-18.40L20.60-18.40L20.60-18.40Q23.70-15.95 23.70-12.83L23.70-12.83L23.70-12.83Q23.70-9.70 22.58-7.20L22.58-7.20L22.58-7.20Q21.45-4.70 19.50-2.90L19.50-2.90L19.50-2.90Q15.35 1 9.05 1L9.05 1L9.05 1Q4.50 1 2.10-0.45L2.10-0.45L2.10-0.45Q-0.30-1.90-0.30-4.67L-0.30-4.67L-0.30-4.67Q-0.30-7.45 1.45-8.95L1.45-8.95L1.45-8.95Q3.55-5.40 8-5.40L8-5.40L8-5.40Q10.70-5.40 12.20-6.65L12.20-6.65L12.20-6.65Q13.70-7.90 13.70-10.30L13.70-10.30L13.70-10.30Q13.70-15.10 6.75-15.10L6.75-15.10L6.75-15.10Q4.10-15.10 2.40-14.90L2.40-14.90L7.10-33L18.85-33L18.85-33Q22.80-33 24.05-34.75L24.05-34.75L24.05-34.75Q25.35-33.60 25.35-31.05L25.35-31.05L25.35-31.05Q25.35-28.65 23.45-26.95L23.45-26.95L23.45-26.95Q21.55-25.25 18.85-25.25L18.85-25.25L10.30-25.25ZM27.60-11.90L27.60-11.90L27.60-11.90Q27.60-22 32.35-28L32.35-28L32.35-28Q37.10-34 45.25-34L45.25-34L45.25-34Q49.60-34 52.10-30.75L52.10-30.75L52.10-30.75Q54.60-27.50 54.60-22.08L54.60-22.08L54.60-22.08Q54.60-16.65 53.38-12.43L53.38-12.43L53.38-12.43Q52.15-8.20 49.95-5.20L49.95-5.20L49.95-5.20Q45.35 1.05 37.70 1.05L37.70 1.05L37.70 1.05Q32.55 1.05 30.08-2.13L30.08-2.13L30.08-2.13Q27.60-5.30 27.60-11.90ZM36.45-8.50L36.45-8.50L36.45-8.50Q36.45-3.45 38.10-3.45L38.10-3.45L38.10-3.45Q39.60-3.45 40.98-5.20L40.98-5.20L40.98-5.20Q42.35-6.95 43.45-9.90L43.45-9.90L43.45-9.90Q45.80-16.35 45.80-24.35L45.80-24.35L45.80-24.35Q45.80-27.05 45.38-28.28L45.38-28.28L45.38-28.28Q44.95-29.50 43.83-29.50L43.83-29.50L43.83-29.50Q42.70-29.50 41.38-27.55L41.38-27.55L41.38-27.55Q40.05-25.60 38.95-22.55L38.95-22.55L38.95-22.55Q36.45-15.60 36.45-8.50Z" fill="none" stroke="#ffffff" stroke-width="1"></path></g></g><style>text {
  font-size: 64px;
  font-family: Arial Black;
  dominant-baseline: central;
  text-anchor: middle;
}</style></svg>