<svg height="512pt" viewBox="0 -121 512 512" width="512pt" xmlns="http://www.w3.org/2000/svg"><g fill-rule="evenodd"><path d="m42 10h428c17.601562 0 32 14.402344 32 32v185.792969c0 17.597656-14.398438 32-32 32h-428c-17.601562 0-32-14.402344-32-32v-185.792969c0-17.601562 14.398438-32 32-32zm0 0" fill="#ffd777"/><path d="m355.441406 191.046875c0 8.835937 7.160156 16 16 16 8.835938 0 16-7.164063 16-16v-40.152344h29.816406v40.152344c0 8.835937 7.160157 16 16 16 8.835938 0 16-7.164063 16-16v-112.304687c0-8.835938-7.164062-16-16-16-8.839843 0-16 7.164062-16 16v40.152343h-29.816406v-40.152343c0-8.835938-7.164062-16-16-16-8.835937 0-16 7.164062-16 16zm0 0" fill="#fd4848"/><path d="m322.480469 191.046875v-112.304687h-.066407c0-4.371094-1.792968-8.726563-5.308593-11.875-6.558594-5.867188-16.632813-5.304688-22.5 1.25l-38.351563 42.878906-37.378906-41.792969c-2.914062-3.917969-7.582031-6.460937-12.84375-6.460937-8.835938 0-16 7.164062-16 16v112.304687c0 8.835937 7.160156 16 16 16 8.835938 0 16-7.164063 16-16v-70.515625l22.351562 24.988281c5.867188 6.558594 15.941407 7.121094 22.5 1.25.476563-.421875.917969-.871093 1.328126-1.339843l22.273437-24.898438v70.515625c0 8.835937 7.160156 16 16 16 8.835937 0 15.996094-7.164063 15.996094-16zm0 0" fill="#fd4848"/><path d="m118.097656 134.894531 35.214844-46.527343c5.3125-7.039063 3.914062-17.058594-3.125-22.375-7.042969-5.3125-17.0625-3.914063-22.375 3.125l-33.070312 43.691406v-34.066406c0-8.835938-7.160157-16-16-16-8.835938 0-16 7.164062-16 16v112.304687c0 8.835937 7.164062 16 16 16 8.835937 0 16-7.164063 16-16v-34.0625l33.070312 43.6875c5.3125 7.042969 15.332031 8.441406 22.375 3.125 7.039062-5.316406 8.4375-15.332031 3.125-22.375zm0 0" fill="#fd4848"/></g><path d="m52.742188 78.742188v112.304687c0 14.335937 11.664062 26 26 26 14.335937 0 26-11.664063 26-26v-4.28125l15.085937 19.933594c4.179687 5.539062 10.269531 9.117187 17.140625 10.074219 6.867188.960937 13.703125-.8125 19.242188-4.996094 11.429687-8.628906 13.710937-24.949219 5.074218-36.390625l-30.648437-40.492188 30.65625-40.5c8.628906-11.433593 6.347656-27.75-5.082031-36.382812-11.429688-8.625-27.746094-6.347657-36.375 5.074219l-15.09375 19.941406v-4.28125c0-14.335938-11.664063-26-26-26-14.335938 0-26 11.660156-26 25.996094zm32 0v34.066406c0 4.296875 2.746093 8.113281 6.820312 9.480468 4.070312 1.367188 8.5625-.019531 11.15625-3.445312l33.0625-43.691406c.003906 0 .007812-.003906.007812-.007813 1.984376-2.628906 5.742188-3.152343 8.371094-1.167969 2.628906 1.984376 3.152344 5.738282 1.175782 8.355469l-35.214844 46.527344c-2.703125 3.570313-2.699219 8.5 0 12.070313l35.207031 46.515624c1.984375 2.632813 1.460937 6.386719-1.167969 8.371094-1.277344.960938-2.847656 1.371094-4.429687 1.148438-1.578125-.21875-2.980469-1.042969-3.949219-2.328125l-33.0625-43.6875c-2.59375-3.425781-7.085938-4.8125-11.15625-3.445313-4.074219 1.367188-6.820312 5.183594-6.820312 9.480469v34.0625c0 3.308594-2.6875 6-6 6-3.308594 0-6-2.6875-6-6v-112.304687c0-3.308594 2.691406-6 6-6 3.3125 0 6 2.695312 6 6zm0 0"/><path d="m371.4375 52.742188c-14.335938 0-26 11.664062-26 26v112.304687c0 14.335937 11.664062 26 26 26 14.339844 0 26-11.664063 26-26v-30.152344h9.816406v30.152344c0 14.335937 11.664063 26 26 26 14.335938 0 26-11.664063 26-26v-112.304687c0-14.335938-11.664062-26-26-26-14.335937 0-26 11.664062-26 26v30.152343h-9.816406v-30.152343c0-14.335938-11.660156-26-26-26zm45.820312 76.152343c5.519532 0 10-4.476562 10-10v-40.152343c0-3.308594 2.6875-6 6-6 3.308594 0 6 2.691406 6 6v112.304687c0 3.308594-2.691406 6-6 6-3.3125 0-6-2.6875-6-6v-40.152344c0-5.523437-4.480468-10-10-10h-29.820312c-5.519531 0-10 4.476563-10 10v40.152344c0 3.308594-2.6875 6-6 6-3.308594 0-6-2.691406-6-6v-112.304687c0-3.308594 2.691406-6 6-6 3.3125 0 6 2.691406 6 6v40.152343c0 5.523438 4.480469 10 10 10zm0 0"/><path d="m306.480469 217.046875c14.339843 0 26-11.664063 26-26v-112.304687c0-.496094-.035157-.988282-.105469-1.464844-.390625-6.832032-3.476562-13.277344-8.601562-17.863282-10.65625-9.53125-27.085938-8.621093-36.621094 2.039063l-30.898438 34.542969-29.664062-33.164063c-4.898438-6.324219-12.550782-10.089843-20.5625-10.089843-14.335938 0-26 11.664062-26 26v112.304687c0 14.335937 11.664062 26 26 26 14.335937 0 26-11.664063 26-26v-44.335937l4.898437 5.480468c9.535157 10.652344 25.964844 11.566406 36.621094 2.035156.75-.671874 1.472656-1.402343 2.117187-2.128906l4.816407-5.386718v44.335937c0 14.335937 11.664062 26 26 26zm-45.757813-78.242187c-.164062.1875-.335937.359374-.511718.515624-2.4375 2.183594-6.199219 1.972657-8.378907-.464843l-22.351562-24.988281c-2.761719-3.089844-7.144531-4.152344-11.019531-2.675782-3.875 1.480469-6.433594 5.195313-6.433594 9.34375v70.515625c0 3.308594-2.691406 6-6 6s-6-2.691406-6-6v-112.308593c0-3.308594 2.691406-6 6-6 1.917968 0 3.675781.886718 4.824218 2.429687.179688.242187.367188.476563.570313.699219l37.378906 41.792968c1.898438 2.121094 4.609375 3.332032 7.453125 3.332032 2.847656 0 5.558594-1.210938 7.453125-3.332032l38.351563-42.875c2.183594-2.4375 5.941406-2.648437 8.378906-.46875 1.71875 1.539063 1.976562 3.4375 1.976562 4.429688 0 .386719.023438.769531.066407 1.144531v111.15625c0 3.308594-2.691407 6-6 6-3.308594 0-6-2.691406-6-6v-70.515625c0-4.148437-2.558594-7.863281-6.429688-9.34375-1.164062-.445312-2.371093-.660156-3.566406-.660156-2.792969 0-5.523437 1.171875-7.457031 3.335938zm0 0"/><path d="m470 0h-348c-5.523438 0-10 4.476562-10 10s4.476562 10 10 10h348c12.132812 0 22 9.867188 22 22v185.792969c0 12.128906-9.867188 22-22 22h-428c-12.132812 0-22-9.871094-22-22v-185.792969c0-12.132812 9.867188-22 22-22h11.03125c5.523438 0 10-4.476562 10-10s-4.476562-10-10-10h-11.03125c-23.160156 0-42 18.839844-42 42v185.792969c0 23.15625 18.839844 42 42 42h428c23.160156 0 42-18.84375 42-42v-185.792969c0-23.15625-18.839844-42-42-42zm0 0"/><path d="m81.765625 20h.269531c5.519532 0 10-4.476562 10-10s-4.480468-10-10-10h-.269531c-5.523437 0-10 4.476562-10 10s4.476563 10 10 10zm0 0"/></svg>