<svg height="512pt" viewBox="0 -121 512.001 512" width="512pt" xmlns="http://www.w3.org/2000/svg"><g fill-rule="evenodd"><path d="m42 10h428c17.601562 0 32 14.402344 32 32v185.792969c0 17.601562-14.398438 32-32 32h-428c-17.601562 0-32-14.398438-32-32v-185.792969c0-17.597656 14.398438-32 32-32zm0 0" fill="#ffd777"/><path d="m195.195312 191.050781v-112.304687h-.066406c0-4.375-1.792968-8.730469-5.308594-11.875-6.558593-5.871094-16.632812-5.308594-22.5 1.25l-38.351562 42.875-37.378906-41.789063c-2.917969-3.921875-7.585938-6.460937-12.847656-6.460937-8.835938 0-16 7.160156-16 16v112.304687c0 8.835938 7.164062 16 16 16 8.835937 0 16-7.164062 16-16v-70.515625l22.355468 24.988282c5.867188 6.558593 15.9375 7.117187 22.5 1.25.472656-.425782.917969-.875 1.328125-1.34375l22.273438-24.898438v70.515625c0 8.835937 7.160156 16 16 16 8.835937 0 15.996093-7.160156 15.996093-15.996094zm0 0" fill="#fd4848"/><path d="m234.332031 78.746094v112.304687c0 8.835938 7.164063 16 16 16 8.835938 0 16-7.164062 16-16v-40.152343h12.074219c12.140625 0 23.160156-4.957032 31.140625-12.9375 7.984375-7.980469 12.9375-19.003907 12.9375-31.140626 0-12.136718-4.953125-23.160156-12.9375-31.140624-7.980469-7.980469-19-12.933594-31.140625-12.933594h-28.074219c-8.835937 0-16 7.164062-16 16zm32 40.152344v-24.152344h12.074219c3.304688 0 6.320312 1.363281 8.515625 3.558594 2.195313 2.195312 3.5625 5.210937 3.5625 8.515624 0 3.304688-1.367187 6.320313-3.5625 8.515626-2.195313 2.199218-5.210937 3.5625-8.515625 3.5625zm0 0" fill="#fd4848"/><path d="m355.441406 78.746094v112.304687c0 8.835938 7.164063 16 16 16 8.835938 0 16-7.164062 16-16v-40.15625h29.816406v40.15625c0 8.835938 7.164063 16 16 16 8.835938 0 16-7.164062 16-16v-112.304687c0-8.835938-7.164062-16-16-16-8.835937 0-16 7.160156-16 16v40.148437h-29.816406v-40.148437c0-8.835938-7.164062-16-16-16-8.835937 0-16 7.164062-16 16zm0 0" fill="#fd4848"/></g><path d="m52.742188 78.746094v112.304687c0 14.335938 11.664062 26 26 26 14.335937 0 26-11.664062 26-26v-44.339843l4.902343 5.480468c9.535157 10.65625 25.960938 11.570313 36.613281 2.039063.753907-.671875 1.480469-1.40625 2.121094-2.132813l4.820313-5.382812v44.335937c0 14.335938 11.664062 26 26 26 14.335937 0 26-11.664062 26-26v-112.304687c0-.5-.039063-.988282-.109375-1.464844-.390625-6.835938-3.476563-13.277344-8.597656-17.863281-5.164063-4.617188-11.816407-6.953125-18.734376-6.566407-6.914062.382813-13.269531 3.4375-17.886718 8.601563l-30.898438 34.542969-29.664062-33.160156c-4.902344-6.328126-12.550782-10.089844-20.5625-10.089844-14.339844 0-26.003906 11.664062-26.003906 26zm30.824218-3.574219c.179688.242187.367188.476563.570313.699219l37.378906 41.792968c1.898437 2.121094 4.609375 3.332032 7.453125 3.332032 2.847656 0 5.558594-1.210938 7.453125-3.332032l38.351563-42.875c2.183593-2.4375 5.941406-2.648437 8.378906-.464843 1.71875 1.535156 1.976562 3.433593 1.976562 4.425781 0 .386719.023438.769531.066406 1.144531v111.15625c0 3.308594-2.691406 6-6 6-3.308593 0-6-2.691406-6-6v-70.515625c0-4.148437-2.558593-7.863281-6.429687-9.34375-1.164063-.441406-2.371094-.65625-3.566406-.65625-2.792969 0-5.523438 1.167969-7.457031 3.332032l-22.308594 24.941406c-.164063.1875-.332032.355468-.507813.511718-1.179687 1.058594-2.695312 1.597657-4.285156 1.503907-1.582031-.089844-3.035156-.789063-4.09375-1.96875l-22.351563-24.988281c-2.765624-3.089844-7.148437-4.15625-11.019531-2.675782-3.875 1.480469-6.433593 5.195313-6.433593 9.34375v70.515625c0 3.308594-2.691407 6-6 6-3.308594 0-6-2.691406-6-6v-112.304687c0-3.308594 2.691406-6 6-6 1.917968 0 3.675781.882812 4.824218 2.425781zm0 0"/><path d="m276.332031 191.050781v-30.152343h2.074219c14.414062 0 27.984375-5.636719 38.214844-15.863282 10.226562-10.230468 15.859375-23.804687 15.859375-38.214844 0-14.410156-5.632813-27.980468-15.859375-38.210937-10.230469-10.230469-23.800782-15.863281-38.214844-15.863281h-28.074219c-14.335937 0-26 11.664062-26 26v112.304687c0 14.335938 11.664063 26 26 26 14.335938 0 26-11.664062 26-26zm-32 0v-112.304687c0-3.308594 2.691407-6 6-6h28.074219c9.070312 0 17.621094 3.550781 24.070312 10.003906 6.453126 6.453125 10.003907 15 10.003907 24.070312 0 9.070313-3.550781 17.617188-10.003907 24.070313-6.453124 6.453125-15 10.007813-24.070312 10.007813h-12.074219c-5.523437 0-10 4.476562-10 10v40.152343c0 3.308594-2.691406 6-6 6-3.308593 0-6-2.695312-6-6zm0 0"/><path d="m266.332031 128.898438h12.074219c5.871094 0 11.40625-2.304688 15.589844-6.488282 4.183594-4.1875 6.488281-9.722656 6.488281-15.589844 0-5.867187-2.304687-11.402343-6.488281-15.585937s-9.71875-6.488281-15.589844-6.488281h-12.074219c-5.523437 0-10 4.476562-10 10v24.152344c0 5.523437 4.476563 10 10 10zm10-24.152344h2.074219c.710938 0 1.210938.394531 1.445312.628906.234376.234375.632813.738281.632813 1.445312 0 .710938-.398437 1.210938-.632813 1.445313-.234374.238281-.734374.632813-1.445312.632813h-2.074219zm0 0"/><path d="m371.441406 52.746094c-14.335937 0-26 11.664062-26 26v112.304687c0 14.335938 11.664063 26 26 26 14.335938 0 26-11.664062 26-26v-30.15625h9.816406v30.152344c0 14.335937 11.664063 26 26 26 14.335938 0 26-11.664063 26-26v-112.300781c0-14.335938-11.664062-26-26-26-14.335937 0-26 11.664062-26 26v30.148437h-9.816406v-30.148437c0-14.335938-11.664062-26-26-26zm45.816406 76.148437c5.523438 0 10-4.476562 10-10v-40.148437c0-3.3125 2.691407-6 6-6 3.308594 0 6 2.6875 6 6v112.300781c0 3.308594-2.691406 6-6 6-3.308593 0-6-2.691406-6-6v-40.152344c0-5.519531-4.476562-10-10-10h-29.816406c-5.523437 0-10 4.480469-10 10v40.152344c0 3.308594-2.691406 6-6 6s-6-2.691406-6-6v-112.300781c0-3.308594 2.691406-6 6-6s6 2.691406 6 6v40.148437c0 5.523438 4.476563 10 10 10zm0 0"/><path d="m81.765625 20h.269531c5.523438 0 10-4.476562 10-10s-4.476562-10-10-10h-.269531c-5.523437 0-10 4.476562-10 10s4.476563 10 10 10zm0 0"/><path d="m470 0h-348c-5.523438 0-10 4.476562-10 10s4.476562 10 10 10h348c12.132812 0 22 9.871094 22 22v185.792969c0 12.132812-9.867188 22-22 22h-428c-12.132812 0-22-9.867188-22-22v-185.792969c0-12.128906 9.867188-22 22-22h11.035156c5.523438 0 10-4.476562 10-10s-4.476562-10-10-10h-11.035156c-23.160156 0-42 18.839844-42 42v185.792969c0 23.15625 18.839844 42 42 42h428c23.160156 0 42-18.84375 42-42v-185.792969c0-23.15625-18.839844-42-42-42zm0 0"/></svg>