<svg width="255.27998046874998px" height="178.43984375px" xmlns="http://www.w3.org/2000/svg" viewBox="122.36000976562501 -14.219921874999997 255.27998046874998 178.43984375" style="background: rgba(0, 0, 0, 0);" preserveAspectRatio="xMidYMid"><defs><filter id="editing-neon" x="-100%" y="-100%" width="300%" height="300%"><feFlood flood-color="#67b4d3" result="flood"></feFlood><feComposite operator="in" in="flood" in2="SourceAlpha" result="color"></feComposite><feFlood flood-color="#67b4d3" result="flood2"></feFlood><feComposite operator="in" in="flood2" in2="SourceAlpha" result="color2"></feComposite><feMorphology operator="dilate" radius="2" in="color" result="dilate"></feMorphology><feGaussianBlur stdDeviation="6" in="color" result="blur1"></feGaussianBlur><feGaussianBlur stdDeviation="2.5" in="color" result="blur2"></feGaussianBlur><feGaussianBlur stdDeviation="1" in="SourceAlpha" result="blur3"></feGaussianBlur><feGaussianBlur stdDeviation="6" in="dilate" result="blur4"></feGaussianBlur><feConvolveMatrix in="color2" result="conv" order="3,3" divisor="1" kernelMatrix="1 1 1  1 1 1  1 1 1"></feConvolveMatrix><feMerge><feMergeNode in="blur1"></feMergeNode><feMergeNode in="blur2"></feMergeNode><feMergeNode in="blur4"></feMergeNode><feMergeNode in="blur3"></feMergeNode><feMergeNode in="blur3"></feMergeNode><feMergeNode in="blur3"></feMergeNode><feMergeNode in="blur3"></feMergeNode><feMergeNode in="conv"></feMergeNode><feMergeNode in="SourceGraphic"></feMergeNode></feMerge></filter></defs><g filter="url(#editing-neon)"><g transform="translate(164.75000607967377, 110.04999923706055)"><path d="M20.20 1.30L13.80 1.10L13.80 1.10Q10.70 1 7.45 1L7.45 1L7.45 1Q4.20 1 1 1.40L1 1.40L1 1.40Q0.60-0.20 0.60-2.10L0.60-2.10L0.60-2.10Q0.60-6.10 2.85-8.50L2.85-8.50L2.85-8.50Q5.10-10.90 8.60-10.90L8.60-10.90L14-10.90L22.40-48.70L22.40-48.70Q19.30-45.60 12.90-45.60L12.90-45.60L12.90-45.60Q9.70-45.60 7.20-48.60L7.20-48.60L7.20-48.60Q4.70-51.40 4.30-55.40L4.30-55.40L4.30-55.40Q19.10-58 41.20-67.90L41.20-67.90L44.40-64.10L34.70-10.90L37.20-10.90L37.20-10.90Q43.20-10.90 46.30-12L46.30-12L46.30-12Q47.60-9.80 47.60-6.20L47.60-6.20L47.60-6.20Q47.60-2.60 44.95-0.45L44.95-0.45L44.95-0.45Q42.30 1.70 37.90 1.70L37.90 1.70L37.90 1.70Q29 1.70 20.20 1.30L20.20 1.30ZM55.50-23.80L55.50-23.80L55.50-23.80Q55.50-44 65-56L65-56L65-56Q74.50-68 90.80-68L90.80-68L90.80-68Q99.50-68 104.50-61.50L104.50-61.50L104.50-61.50Q109.50-55 109.50-44.15L109.50-44.15L109.50-44.15Q109.50-33.30 107.05-24.85L107.05-24.85L107.05-24.85Q104.60-16.40 100.20-10.40L100.20-10.40L100.20-10.40Q91 2.10 75.70 2.10L75.70 2.10L75.70 2.10Q65.40 2.10 60.45-4.25L60.45-4.25L60.45-4.25Q55.50-10.60 55.50-23.80ZM73.20-17L73.20-17L73.20-17Q73.20-6.90 76.50-6.90L76.50-6.90L76.50-6.90Q79.50-6.90 82.25-10.40L82.25-10.40L82.25-10.40Q85-13.90 87.20-19.80L87.20-19.80L87.20-19.80Q91.90-32.70 91.90-48.70L91.90-48.70L91.90-48.70Q91.90-54.10 91.05-56.55L91.05-56.55L91.05-56.55Q90.20-59 87.95-59L87.95-59L87.95-59Q85.70-59 83.05-55.10L83.05-55.10L83.05-55.10Q80.40-51.20 78.20-45.10L78.20-45.10L78.20-45.10Q73.20-31.20 73.20-17ZM115.90-23.80L115.90-23.80L115.90-23.80Q115.90-44 125.40-56L125.40-56L125.40-56Q134.90-68 151.20-68L151.20-68L151.20-68Q159.90-68 164.90-61.50L164.90-61.50L164.90-61.50Q169.90-55 169.90-44.15L169.90-44.15L169.90-44.15Q169.90-33.30 167.45-24.85L167.45-24.85L167.45-24.85Q165-16.40 160.60-10.40L160.60-10.40L160.60-10.40Q151.40 2.10 136.10 2.10L136.10 2.10L136.10 2.10Q125.80 2.10 120.85-4.25L120.85-4.25L120.85-4.25Q115.90-10.60 115.90-23.80ZM133.60-17L133.60-17L133.60-17Q133.60-6.90 136.90-6.90L136.90-6.90L136.90-6.90Q139.90-6.90 142.65-10.40L142.65-10.40L142.65-10.40Q145.40-13.90 147.60-19.80L147.60-19.80L147.60-19.80Q152.30-32.70 152.30-48.70L152.30-48.70L152.30-48.70Q152.30-54.10 151.45-56.55L151.45-56.55L151.45-56.55Q150.60-59 148.35-59L148.35-59L148.35-59Q146.10-59 143.45-55.10L143.45-55.10L143.45-55.10Q140.80-51.20 138.60-45.10L138.60-45.10L138.60-45.10Q133.60-31.20 133.60-17Z" fill="none" stroke="#ffffff" stroke-width="1.5"></path></g></g><style>text {
  font-size: 64px;
  font-family: Arial Black;
  dominant-baseline: central;
  text-anchor: middle;
}</style></svg>