<svg width="174.65750732421876px" height="178.43984375px" xmlns="http://www.w3.org/2000/svg" viewBox="162.67124633789064 -14.219921874999997 174.65750732421876 178.43984375" style="background: rgba(0, 0, 0, 0);" preserveAspectRatio="xMidYMid"><defs><filter id="editing-neon" x="-100%" y="-100%" width="300%" height="300%"><feFlood flood-color="#67b4d3" result="flood"></feFlood><feComposite operator="in" in="flood" in2="SourceAlpha" result="color"></feComposite><feFlood flood-color="#67b4d3" result="flood2"></feFlood><feComposite operator="in" in="flood2" in2="SourceAlpha" result="color2"></feComposite><feMorphology operator="dilate" radius="2" in="color" result="dilate"></feMorphology><feGaussianBlur stdDeviation="6" in="color" result="blur1"></feGaussianBlur><feGaussianBlur stdDeviation="2.5" in="color" result="blur2"></feGaussianBlur><feGaussianBlur stdDeviation="1" in="SourceAlpha" result="blur3"></feGaussianBlur><feGaussianBlur stdDeviation="6" in="dilate" result="blur4"></feGaussianBlur><feConvolveMatrix in="color2" result="conv" order="3,3" divisor="1" kernelMatrix="1 1 1  1 1 1  1 1 1"></feConvolveMatrix><feMerge><feMergeNode in="blur1"></feMergeNode><feMergeNode in="blur2"></feMergeNode><feMergeNode in="blur4"></feMergeNode><feMergeNode in="blur3"></feMergeNode><feMergeNode in="blur3"></feMergeNode><feMergeNode in="blur3"></feMergeNode><feMergeNode in="blur3"></feMergeNode><feMergeNode in="conv"></feMergeNode><feMergeNode in="SourceGraphic"></feMergeNode></feMerge></filter></defs><g filter="url(#editing-neon)"><g transform="translate(194.99687731266022, 110.79999923706055)"><path d="M20.60-50.50L17.80-41.10L17.80-41.10Q23.60-41.60 27.20-41.60L27.20-41.60L27.20-41.60Q30.80-41.60 34.60-40.30L34.60-40.30L34.60-40.30Q38.40-39 41.20-36.80L41.20-36.80L41.20-36.80Q47.40-31.90 47.40-25.65L47.40-25.65L47.40-25.65Q47.40-19.40 45.15-14.40L45.15-14.40L45.15-14.40Q42.90-9.40 39-5.80L39-5.80L39-5.80Q30.70 2 18.10 2L18.10 2L18.10 2Q9 2 4.20-0.90L4.20-0.90L4.20-0.90Q-0.60-3.80-0.60-9.35L-0.60-9.35L-0.60-9.35Q-0.60-14.90 2.90-17.90L2.90-17.90L2.90-17.90Q7.10-10.80 16-10.80L16-10.80L16-10.80Q21.40-10.80 24.40-13.30L24.40-13.30L24.40-13.30Q27.40-15.80 27.40-20.60L27.40-20.60L27.40-20.60Q27.40-30.20 13.50-30.20L13.50-30.20L13.50-30.20Q8.20-30.20 4.80-29.80L4.80-29.80L14.20-66L37.70-66L37.70-66Q45.60-66 48.10-69.50L48.10-69.50L48.10-69.50Q50.70-67.20 50.70-62.10L50.70-62.10L50.70-62.10Q50.70-57.30 46.90-53.90L46.90-53.90L46.90-53.90Q43.10-50.50 37.70-50.50L37.70-50.50L20.60-50.50ZM55.20-23.80L55.20-23.80L55.20-23.80Q55.20-44 64.70-56L64.70-56L64.70-56Q74.20-68 90.50-68L90.50-68L90.50-68Q99.20-68 104.20-61.50L104.20-61.50L104.20-61.50Q109.20-55 109.20-44.15L109.20-44.15L109.20-44.15Q109.20-33.30 106.75-24.85L106.75-24.85L106.75-24.85Q104.30-16.40 99.90-10.40L99.90-10.40L99.90-10.40Q90.70 2.10 75.40 2.10L75.40 2.10L75.40 2.10Q65.10 2.10 60.15-4.25L60.15-4.25L60.15-4.25Q55.20-10.60 55.20-23.80ZM72.90-17L72.90-17L72.90-17Q72.90-6.90 76.20-6.90L76.20-6.90L76.20-6.90Q79.20-6.90 81.95-10.40L81.95-10.40L81.95-10.40Q84.70-13.90 86.90-19.80L86.90-19.80L86.90-19.80Q91.60-32.70 91.60-48.70L91.60-48.70L91.60-48.70Q91.60-54.10 90.75-56.55L90.75-56.55L90.75-56.55Q89.90-59 87.65-59L87.65-59L87.65-59Q85.40-59 82.75-55.10L82.75-55.10L82.75-55.10Q80.10-51.20 77.90-45.10L77.90-45.10L77.90-45.10Q72.90-31.20 72.90-17Z" fill="none" stroke="#ffffff" stroke-width="1.5"></path></g></g><style>text {
  font-size: 64px;
  font-family: Arial Black;
  dominant-baseline: central;
  text-anchor: middle;
}</style></svg>