<svg width="55.52996139526367px" height="98.75234375px" xmlns="http://www.w3.org/2000/svg" viewBox="222.23501930236816 25.623828125000003 55.52996139526367 98.75234375" style="background: rgba(0, 0, 0, 0);" preserveAspectRatio="xMidYMid"><defs><filter id="editing-neon" x="-100%" y="-100%" width="300%" height="300%"><feFlood flood-color="#67b4d3" result="flood"></feFlood><feComposite operator="in" in="flood" in2="SourceAlpha" result="color"></feComposite><feFlood flood-color="#67b4d3" result="flood2"></feFlood><feComposite operator="in" in="flood2" in2="SourceAlpha" result="color2"></feComposite><feMorphology operator="dilate" radius="2" in="color" result="dilate"></feMorphology><feGaussianBlur stdDeviation="6" in="color" result="blur1"></feGaussianBlur><feGaussianBlur stdDeviation="2.5" in="color" result="blur2"></feGaussianBlur><feGaussianBlur stdDeviation="1" in="SourceAlpha" result="blur3"></feGaussianBlur><feGaussianBlur stdDeviation="6" in="dilate" result="blur4"></feGaussianBlur><feConvolveMatrix in="color2" result="conv" order="3,3" divisor="1" kernelMatrix="1 1 1  1 1 1  1 1 1"></feConvolveMatrix><feMerge><feMergeNode in="blur1"></feMergeNode><feMergeNode in="blur2"></feMergeNode><feMergeNode in="blur4"></feMergeNode><feMergeNode in="blur3"></feMergeNode><feMergeNode in="blur3"></feMergeNode><feMergeNode in="blur3"></feMergeNode><feMergeNode in="blur3"></feMergeNode><feMergeNode in="conv"></feMergeNode><feMergeNode in="SourceGraphic"></feMergeNode></feMerge></filter></defs><g filter="url(#editing-neon)"><g transform="translate(237.94999998807907, 92.39999961853027)"><path d="M10.10 0.65L6.90 0.55L6.90 0.55Q5.35 0.50 3.73 0.50L3.73 0.50L3.73 0.50Q2.10 0.50 0.50 0.70L0.50 0.70L0.50 0.70Q0.30-0.10 0.30-1.05L0.30-1.05L0.30-1.05Q0.30-3.05 1.43-4.25L1.43-4.25L1.43-4.25Q2.55-5.45 4.30-5.45L4.30-5.45L7-5.45L11.20-24.35L11.20-24.35Q9.65-22.80 6.45-22.80L6.45-22.80L6.45-22.80Q4.85-22.80 3.60-24.30L3.60-24.30L3.60-24.30Q2.35-25.70 2.15-27.70L2.15-27.70L2.15-27.70Q9.55-29 20.60-33.95L20.60-33.95L22.20-32.05L17.35-5.45L18.60-5.45L18.60-5.45Q21.60-5.45 23.15-6L23.15-6L23.15-6Q23.80-4.90 23.80-3.10L23.80-3.10L23.80-3.10Q23.80-1.30 22.48-0.23L22.48-0.23L22.48-0.23Q21.15 0.85 18.95 0.85L18.95 0.85L18.95 0.85Q14.50 0.85 10.10 0.65L10.10 0.65Z" fill="none" stroke="#ffffff" stroke-width="1"></path></g></g><style>text {
  font-size: 64px;
  font-family: Arial Black;
  dominant-baseline: central;
  text-anchor: middle;
}</style></svg>