<svg width="58.1650390625px" height="98.75234375px" xmlns="http://www.w3.org/2000/svg" viewBox="220.91748046875 25.623828125000003 58.1650390625 98.75234375" style="background: rgba(0, 0, 0, 0);" preserveAspectRatio="xMidYMid"><defs><filter id="editing-neon" x="-100%" y="-100%" width="300%" height="300%"><feFlood flood-color="#67b4d3" result="flood"></feFlood><feComposite operator="in" in="flood" in2="SourceAlpha" result="color"></feComposite><feFlood flood-color="#67b4d3" result="flood2"></feFlood><feComposite operator="in" in="flood2" in2="SourceAlpha" result="color2"></feComposite><feMorphology operator="dilate" radius="2" in="color" result="dilate"></feMorphology><feGaussianBlur stdDeviation="6" in="color" result="blur1"></feGaussianBlur><feGaussianBlur stdDeviation="2.5" in="color" result="blur2"></feGaussianBlur><feGaussianBlur stdDeviation="1" in="SourceAlpha" result="blur3"></feGaussianBlur><feGaussianBlur stdDeviation="6" in="dilate" result="blur4"></feGaussianBlur><feConvolveMatrix in="color2" result="conv" order="3,3" divisor="1" kernelMatrix="1 1 1  1 1 1  1 1 1"></feConvolveMatrix><feMerge><feMergeNode in="blur1"></feMergeNode><feMergeNode in="blur2"></feMergeNode><feMergeNode in="blur4"></feMergeNode><feMergeNode in="blur3"></feMergeNode><feMergeNode in="blur3"></feMergeNode><feMergeNode in="blur3"></feMergeNode><feMergeNode in="blur3"></feMergeNode><feMergeNode in="conv"></feMergeNode><feMergeNode in="SourceGraphic"></feMergeNode></feMerge></filter></defs><g filter="url(#editing-neon)"><g transform="translate(236.5750005543232, 92.5)"><path d="M0.75-1.25L0.45-7.40L6.70-12.20L10.60-15.40L10.60-15.40Q12.60-17.10 14.05-18.60L14.05-18.60L14.05-18.60Q16.70-21.25 16.70-23.80L16.70-23.80L16.70-23.80Q16.70-25.30 15.73-26.10L15.73-26.10L15.73-26.10Q14.75-26.90 13.33-26.90L13.33-26.90L13.33-26.90Q11.90-26.90 10.88-26.58L10.88-26.58L10.88-26.58Q9.85-26.25 8.95-25.70L8.95-25.70L8.95-25.70Q7.05-24.45 6.15-22.55L6.15-22.55L6.15-22.55Q4.90-22.60 4.08-23.65L4.08-23.65L4.08-23.65Q3.25-24.70 3.25-26.23L3.25-26.23L3.25-26.23Q3.25-27.75 4.20-29.18L4.20-29.18L4.20-29.18Q5.15-30.60 6.85-31.70L6.85-31.70L6.85-31.70Q10.55-34 15.63-34L15.63-34L15.63-34Q20.70-34 23.55-31.80L23.55-31.80L23.55-31.80Q26.40-29.60 26.40-25.85L26.40-25.85L26.40-25.85Q26.40-23.05 25.03-20.50L25.03-20.50L25.03-20.50Q23.65-17.95 20-15.35L20-15.35L14.60-11.55L11.35-9.40L7.20-6.85L8.95-6.65L8.95-6.65Q10.15-6.50 12.25-6.50L12.25-6.50L12.25-6.50Q14.35-6.50 16.10-6.73L16.10-6.73L16.10-6.73Q17.85-6.95 19.35-7.40L19.35-7.40L19.35-7.40Q22.65-8.30 23.70-9.55L23.70-9.55L23.70-9.55Q24.25-9.15 24.68-8.13L24.68-8.13L24.68-8.13Q25.10-7.10 25.10-5.85L25.10-5.85L25.10-5.85Q25.10-2.10 22.25-0.55L22.25-0.55L22.25-0.55Q19.40 1 13.55 1L13.55 1L13.55 1Q10.50 1 6.45 0.13L6.45 0.13L6.45 0.13Q2.40-0.75 0.75-1.25L0.75-1.25Z" fill="none" stroke="#ffffff" stroke-width="1"></path></g></g><style>text {
  font-size: 64px;
  font-family: Arial Black;
  dominant-baseline: central;
  text-anchor: middle;
}</style></svg>