<svg width="57.16625137329101px" height="98.75234375px" xmlns="http://www.w3.org/2000/svg" viewBox="221.4168743133545 25.623828125000003 57.16625137329101 98.75234375" style="background: rgba(0, 0, 0, 0);" preserveAspectRatio="xMidYMid"><defs><filter id="editing-neon" x="-100%" y="-100%" width="300%" height="300%"><feFlood flood-color="#67b4d3" result="flood"></feFlood><feComposite operator="in" in="flood" in2="SourceAlpha" result="color"></feComposite><feFlood flood-color="#67b4d3" result="flood2"></feFlood><feComposite operator="in" in="flood2" in2="SourceAlpha" result="color2"></feComposite><feMorphology operator="dilate" radius="2" in="color" result="dilate"></feMorphology><feGaussianBlur stdDeviation="6" in="color" result="blur1"></feGaussianBlur><feGaussianBlur stdDeviation="2.5" in="color" result="blur2"></feGaussianBlur><feGaussianBlur stdDeviation="1" in="SourceAlpha" result="blur3"></feGaussianBlur><feGaussianBlur stdDeviation="6" in="dilate" result="blur4"></feGaussianBlur><feConvolveMatrix in="color2" result="conv" order="3,3" divisor="1" kernelMatrix="1 1 1  1 1 1  1 1 1"></feConvolveMatrix><feMerge><feMergeNode in="blur1"></feMergeNode><feMergeNode in="blur2"></feMergeNode><feMergeNode in="blur4"></feMergeNode><feMergeNode in="blur3"></feMergeNode><feMergeNode in="blur3"></feMergeNode><feMergeNode in="blur3"></feMergeNode><feMergeNode in="blur3"></feMergeNode><feMergeNode in="conv"></feMergeNode><feMergeNode in="SourceGraphic"></feMergeNode></feMerge></filter></defs><g filter="url(#editing-neon)"><g transform="translate(237.32343807816505, 92.5)"><path d="M17.05-18.05L17.05-18.05L17.05-18.05Q23.65-16.35 23.65-9.90L23.65-9.90L23.65-9.90Q23.65-5.25 19.70-2.20L19.70-2.20L19.70-2.20Q15.50 1 8.60 1L8.60 1L8.60 1Q4.50 1 2.05-0.58L2.05-0.58L2.05-0.58Q-0.40-2.15-0.40-4.75L-0.40-4.75L-0.40-4.75Q-0.40-7.35 1.55-8.95L1.55-8.95L1.55-8.95Q2.55-7.10 4.33-6.25L4.33-6.25L4.33-6.25Q6.10-5.40 8.38-5.40L8.38-5.40L8.38-5.40Q10.65-5.40 12.10-6.60L12.10-6.60L12.10-6.60Q13.55-7.80 13.55-10.15L13.55-10.15L13.55-10.15Q13.55-14.60 7.45-14.60L7.45-14.60L8.30-19.10L8.30-19.10Q15.60-20.30 15.60-23.90L15.60-23.90L15.60-23.90Q15.60-25.35 14.60-26.15L14.60-26.15L14.60-26.15Q13.60-26.95 11.70-26.95L11.70-26.95L11.70-26.95Q8.35-26.95 5.40-23.85L5.40-23.85L5.40-23.85Q4.45-24.10 4.05-24.78L4.05-24.78L4.05-24.78Q3.65-25.45 3.65-26.85L3.65-26.85L3.65-26.85Q3.65-28.25 4.65-29.58L4.65-29.58L4.65-29.58Q5.65-30.90 7.40-31.90L7.40-31.90L7.40-31.90Q11.15-34 16.20-34L16.20-34L16.20-34Q20.05-34 22.50-32L22.50-32L22.50-32Q25.05-29.95 25.05-26.90L25.05-26.90L25.05-26.90Q25.05-24.15 22.85-21.75L22.85-21.75L22.85-21.75Q20.65-19.35 17.05-18.05Z" fill="none" stroke="#ffffff" stroke-width="1"></path></g></g><style>text {
  font-size: 64px;
  font-family: Arial Black;
  dominant-baseline: central;
  text-anchor: middle;
}</style></svg>