<svg width="59.1212890625px" height="98.75234375px" xmlns="http://www.w3.org/2000/svg" viewBox="220.43935546875 25.623828125000003 59.1212890625 98.75234375" style="background: rgba(0, 0, 0, 0);" preserveAspectRatio="xMidYMid"><defs><filter id="editing-neon" x="-100%" y="-100%" width="300%" height="300%"><feFlood flood-color="#67b4d3" result="flood"></feFlood><feComposite operator="in" in="flood" in2="SourceAlpha" result="color"></feComposite><feFlood flood-color="#67b4d3" result="flood2"></feFlood><feComposite operator="in" in="flood2" in2="SourceAlpha" result="color2"></feComposite><feMorphology operator="dilate" radius="2" in="color" result="dilate"></feMorphology><feGaussianBlur stdDeviation="6" in="color" result="blur1"></feGaussianBlur><feGaussianBlur stdDeviation="2.5" in="color" result="blur2"></feGaussianBlur><feGaussianBlur stdDeviation="1" in="SourceAlpha" result="blur3"></feGaussianBlur><feGaussianBlur stdDeviation="6" in="dilate" result="blur4"></feGaussianBlur><feConvolveMatrix in="color2" result="conv" order="3,3" divisor="1" kernelMatrix="1 1 1  1 1 1  1 1 1"></feConvolveMatrix><feMerge><feMergeNode in="blur1"></feMergeNode><feMergeNode in="blur2"></feMergeNode><feMergeNode in="blur4"></feMergeNode><feMergeNode in="blur3"></feMergeNode><feMergeNode in="blur3"></feMergeNode><feMergeNode in="blur3"></feMergeNode><feMergeNode in="blur3"></feMergeNode><feMergeNode in="conv"></feMergeNode><feMergeNode in="SourceGraphic"></feMergeNode></feMerge></filter></defs><g filter="url(#editing-neon)"><g transform="translate(236.59843695163727, 92.52499961853027)"><path d="M25.90-13.15L25.90-13.15L25.90-13.15Q26.45-12.10 26.45-10.05L26.45-10.05L26.45-10.05Q26.45-8 24.93-6.58L24.93-6.58L24.93-6.58Q23.40-5.15 20.05-5.15L20.05-5.15L19.75-5.15L18.95 0L18.95 0Q17.60 1 15.20 1L15.20 1L15.20 1Q12.10 1 11.10-0.90L11.10-0.90L11.10-0.90Q10.70-1.60 10.70-2.20L10.70-2.20L10.70-2.20Q10.70-2.90 10.80-3.70L10.80-3.70L11.15-5.60L-0.35-6.80L-0.35-13.10L18.35-34.05L18.35-34L18.40-34.05L25.35-33.30L25.35-33.30Q23-23.70 21-12.65L21-12.65L22.15-12.65L22.15-12.65Q25-12.65 25.90-13.15ZM15.85-25.65L5-13L12.55-12.75L12.55-12.75Q14.20-20.10 15.85-25.65L15.85-25.65Z" fill="none" stroke="#ffffff" stroke-width="1"></path></g></g><style>text {
  font-size: 64px;
  font-family: Arial Black;
  dominant-baseline: central;
  text-anchor: middle;
}</style></svg>